{
    "asset" : {
        "generator" : "Khronos glTF Blender I/O v1.6.16",
        "version" : "2.0"
    },
    "scene" : 0,
    "scenes" : [
        {
            "name" : "Scene",
            "nodes" : [
                0
            ]
        }
    ],
    "nodes" : [
        {
            "mesh" : 0,
            "name" : "rangefinder",
            "rotation" : [
                0.7071068286895752,
                0,
                0,
                0.7071067094802856
            ],
            "scale" : [
                17.220325469970703,
                17.220325469970703,
                17.220325469970703
            ],
            "translation" : [
                0.07742337882518768,
                0.08333856612443924,
                0.3900403082370758
            ]
        }
    ],
    "materials" : [
        {
            "doubleSided" : true,
            "name" : "Gray8",
            "pbrMetallicRoughness" : {
                "baseColorFactor" : [
                    0.2666670083999634,
                    0.2666670083999634,
                    0.2666670083999634,
                    1
                ],
                "metallicFactor" : 0
            }
        },
        {
            "doubleSided" : true,
            "name" : "Gray5",
            "pbrMetallicRoughness" : {
                "baseColorFactor" : [
                    0.5294119715690613,
                    0.5294119715690613,
                    0.5294119715690613,
                    1
                ],
                "metallicFactor" : 0
            }
        },
        {
            "doubleSided" : true,
            "name" : "Cobalt",
            "pbrMetallicRoughness" : {
                "baseColorFactor" : [
                    0.23529399931430817,
                    0.4078429937362671,
                    0.556863009929657,
                    1
                ],
                "metallicFactor" : 0
            }
        }
    ],
    "meshes" : [
        {
            "name" : "sniper",
            "primitives" : [
                {
                    "attributes" : {
                        "POSITION" : 0,
                        "NORMAL" : 1
                    },
                    "indices" : 2,
                    "material" : 0
                },
                {
                    "attributes" : {
                        "POSITION" : 3,
                        "NORMAL" : 4
                    },
                    "indices" : 5,
                    "material" : 1
                },
                {
                    "attributes" : {
                        "POSITION" : 6,
                        "NORMAL" : 7
                    },
                    "indices" : 8,
                    "material" : 2
                }
            ]
        }
    ],
    "accessors" : [
        {
            "bufferView" : 0,
            "componentType" : 5126,
            "count" : 80,
            "max" : [
                -0.0005960459820926189,
                -0.011999995447695255,
                0.008379558101296425
            ],
            "min" : [
                -0.008396046236157417,
                -0.034199997782707214,
                0.0005795578472316265
            ],
            "type" : "VEC3"
        },
        {
            "bufferView" : 1,
            "componentType" : 5126,
            "count" : 80,
            "type" : "VEC3"
        },
        {
            "bufferView" : 2,
            "componentType" : 5123,
            "count" : 192,
            "type" : "SCALAR"
        },
        {
            "bufferView" : 3,
            "componentType" : 5126,
            "count" : 176,
            "max" : [
                3.953929990530014e-06,
                3.725290298461914e-09,
                0.008979558944702148
            ],
            "min" : [
                -0.008996046148240566,
                -0.043199993669986725,
                -2.044113352894783e-05
            ],
            "type" : "VEC3"
        },
        {
            "bufferView" : 4,
            "componentType" : 5126,
            "count" : 176,
            "type" : "VEC3"
        },
        {
            "bufferView" : 5,
            "componentType" : 5123,
            "count" : 312,
            "type" : "SCALAR"
        },
        {
            "bufferView" : 6,
            "componentType" : 5126,
            "count" : 8,
            "max" : [
                -0.0005960459820926189,
                -0.0011999960988759995,
                0.008379558101296425
            ],
            "min" : [
                -0.008396046236157417,
                -0.041999995708465576,
                0.0005795578472316265
            ],
            "type" : "VEC3"
        },
        {
            "bufferView" : 7,
            "componentType" : 5126,
            "count" : 8,
            "type" : "VEC3"
        },
        {
            "bufferView" : 8,
            "componentType" : 5123,
            "count" : 12,
            "type" : "SCALAR"
        }
    ],
    "bufferViews" : [
        {
            "buffer" : 0,
            "byteLength" : 960,
            "byteOffset" : 0
        },
        {
            "buffer" : 0,
            "byteLength" : 960,
            "byteOffset" : 960
        },
        {
            "buffer" : 0,
            "byteLength" : 384,
            "byteOffset" : 1920
        },
        {
            "buffer" : 0,
            "byteLength" : 2112,
            "byteOffset" : 2304
        },
        {
            "buffer" : 0,
            "byteLength" : 2112,
            "byteOffset" : 4416
        },
        {
            "buffer" : 0,
            "byteLength" : 624,
            "byteOffset" : 6528
        },
        {
            "buffer" : 0,
            "byteLength" : 96,
            "byteOffset" : 7152
        },
        {
            "buffer" : 0,
            "byteLength" : 96,
            "byteOffset" : 7248
        },
        {
            "buffer" : 0,
            "byteLength" : 24,
            "byteOffset" : 7344
        }
    ],
    "buffers" : [
        {
            "byteLength" : 7368,
            "uri" : "data:application/octet-stream;base64,"
        }
    ]
}
