{
    "asset" : {
        "generator" : "Khronos glTF Blender I/O v1.6.16",
        "version" : "2.0"
    },
    "scene" : 0,
    "scenes" : [
        {
            "name" : "Scene",
            "nodes" : [
                0
            ]
        }
    ],
    "nodes" : [
        {
            "mesh" : 0,
            "name" : "rangefinder",
            "rotation" : [
                0.7071068286895752,
                0,
                0,
                0.7071067094802856
            ],
            "scale" : [
                17.220325469970703,
                17.220325469970703,
                17.220325469970703
            ]
        }
    ],
    "materials" : [
        {
            "doubleSided" : true,
            "name" : "Gray8",
            "pbrMetallicRoughness" : {
                "baseColorFactor" : [
                    0.2666670083999634,
                    0.2666670083999634,
                    0.2666670083999634,
                    1
                ],
                "metallicFactor" : 0
            }
        },
        {
            "doubleSided" : true,
            "name" : "Gray5",
            "pbrMetallicRoughness" : {
                "baseColorFactor" : [
                    0.5294119715690613,
                    0.5294119715690613,
                    0.5294119715690613,
                    1
                ],
                "metallicFactor" : 0
            }
        },
        {
            "doubleSided" : true,
            "name" : "Cobalt",
            "pbrMetallicRoughness" : {
                "baseColorFactor" : [
                    0.23529399931430817,
                    0.4078429937362671,
                    0.556863009929657,
                    1
                ],
                "metallicFactor" : 0
            }
        }
    ],
    "meshes" : [
        {
            "name" : "sniper",
            "primitives" : [
                {
                    "attributes" : {
                        "POSITION" : 0,
                        "NORMAL" : 1
                    },
                    "indices" : 2,
                    "material" : 0
                },
                {
                    "attributes" : {
                        "POSITION" : 3,
                        "NORMAL" : 4
                    },
                    "indices" : 5,
                    "material" : 1
                },
                {
                    "attributes" : {
                        "POSITION" : 6,
                        "NORMAL" : 7
                    },
                    "indices" : 8,
                    "material" : 2
                }
            ]
        }
    ],
    "accessors" : [
        {
            "bufferView" : 0,
            "componentType" : 5126,
            "count" : 80,
            "max" : [
                0.003900000359863043,
                0.010650000534951687,
                0.0035400083288550377
            ],
            "min" : [
                -0.0038999998942017555,
                -0.011549999937415123,
                -0.004259992390871048
            ],
            "type" : "VEC3"
        },
        {
            "bufferView" : 1,
            "componentType" : 5126,
            "count" : 80,
            "type" : "VEC3"
        },
        {
            "bufferView" : 2,
            "componentType" : 5123,
            "count" : 192,
            "type" : "SCALAR"
        },
        {
            "bufferView" : 3,
            "componentType" : 5126,
            "count" : 176,
            "max" : [
                0.004500000271946192,
                0.02264999970793724,
                0.004140008240938187
            ],
            "min" : [
                -0.0044999998062849045,
                -0.020549999549984932,
                -0.004859991371631622
            ],
            "type" : "VEC3"
        },
        {
            "bufferView" : 4,
            "componentType" : 5126,
            "count" : 176,
            "type" : "VEC3"
        },
        {
            "bufferView" : 5,
            "componentType" : 5123,
            "count" : 312,
            "type" : "SCALAR"
        },
        {
            "bufferView" : 6,
            "componentType" : 5126,
            "count" : 8,
            "max" : [
                0.003900000359863043,
                0.021449999883770943,
                0.0035400083288550377
            ],
            "min" : [
                -0.0038999998942017555,
                -0.019350001588463783,
                -0.004259992390871048
            ],
            "type" : "VEC3"
        },
        {
            "bufferView" : 7,
            "componentType" : 5126,
            "count" : 8,
            "type" : "VEC3"
        },
        {
            "bufferView" : 8,
            "componentType" : 5123,
            "count" : 12,
            "type" : "SCALAR"
        }
    ],
    "bufferViews" : [
        {
            "buffer" : 0,
            "byteLength" : 960,
            "byteOffset" : 0
        },
        {
            "buffer" : 0,
            "byteLength" : 960,
            "byteOffset" : 960
        },
        {
            "buffer" : 0,
            "byteLength" : 384,
            "byteOffset" : 1920
        },
        {
            "buffer" : 0,
            "byteLength" : 2112,
            "byteOffset" : 2304
        },
        {
            "buffer" : 0,
            "byteLength" : 2112,
            "byteOffset" : 4416
        },
        {
            "buffer" : 0,
            "byteLength" : 624,
            "byteOffset" : 6528
        },
        {
            "buffer" : 0,
            "byteLength" : 96,
            "byteOffset" : 7152
        },
        {
            "buffer" : 0,
            "byteLength" : 96,
            "byteOffset" : 7248
        },
        {
            "buffer" : 0,
            "byteLength" : 24,
            "byteOffset" : 7344
        }
    ],
    "buffers" : [
        {
            "byteLength" : 7368,
            "uri" : "data:application/octet-stream;base64,"
        }
    ]
}
