{
  "accessors": [
    {
      "bufferView": 2,
      "componentType": 5126,
      "count": 3364,
      "max": [
        2.614462375640869,
        2.8043203353881836,
        3.80861234664917
      ],
      "min": [
        -3.7022197246551514,
        -11.791677474975586,
        -4.612062931060791
      ],
      "type": "VEC3"
    },
    {
      "bufferView": 2,
      "byteOffset": 40368,
      "componentType": 5126,
      "count": 3364,
      "max": [
        1.0,
        1.0,
        1.0
      ],
      "min": [
        -1.0,
        -1.0,
        -1.0
      ],
      "type": "VEC3"
    },
    {
      "bufferView": 3,
      "componentType": 5126,
      "count": 3364,
      "max": [
        0.9999971985816956,
        1.0,
        0.999987006187439,
        1.0
      ],
      "min": [
        -1.0,
        -0.9998999834060669,
        -1.0,
        1.0
      ],
      "type": "VEC4"
    },
    {
      "bufferView": 1,
      "componentType": 5126,
      "count": 3364,
      "max": [
        0.9953492879867554,
        0.977510929107666
      ],
      "min": [
        0.004650703631341457,
        0.004650732968002558
      ],
      "type": "VEC2"
    },
    {
      "bufferView": 0,
      "componentType": 5125,
      "count": 10998,
      "type": "SCALAR"
    }
  ],
  "asset": {
    "extras": {
      "author": "Anom Purple Modelling (https://sketchfab.com/Anom404)",
      "license": "SKETCHFAB Standard (https://sketchfab.com/licenses)",
      "source": "https://sketchfab.com/3d-models/security-camera-f16fb315463943b190ed885d1837ef8a",
      "title": "Security Camera"
    },
    "generator": "Sketchfab-15.55.0",
    "version": "2.0"
  },
  "bufferViews": [
    {
      "buffer": 0,
      "byteLength": 43992,
      "name": "floatBufferViews",
      "target": 34963
    },
    {
      "buffer": 0,
      "byteLength": 26912,
      "byteOffset": 43992,
      "byteStride": 8,
      "name": "floatBufferViews",
      "target": 34962
    },
    {
      "buffer": 0,
      "byteLength": 80736,
      "byteOffset": 70904,
      "byteStride": 12,
      "name": "floatBufferViews",
      "target": 34962
    },
    {
      "buffer": 0,
      "byteLength": 53824,
      "byteOffset": 151640,
      "byteStride": 16,
      "name": "floatBufferViews",
      "target": 34962
    }
  ],
  "buffers": [
    {
      "byteLength": 205464,
      "uri": "scene.bin"
    }
  ],
  "extensionsUsed": [
    "KHR_materials_clearcoat"
  ],
  "images": [
    {
      "uri": "textures/Materiais_baseColor.png"
    },
    {
      "uri": "textures/Materiais_metallicRoughness.png"
    },
    {
      "uri": "textures/Materiais_normal.png"
    }
  ],
  "materials": [
    {
      "doubleSided": true,
      "extensions": {
        "KHR_materials_clearcoat": {
          "clearcoatFactor": 1.0,
          "clearcoatRoughnessFactor": 0.04
        }
      },
      "name": "Materiais",
      "normalTexture": {
        "index": 2
      },
      "occlusionTexture": {
        "index": 1
      },
      "pbrMetallicRoughness": {
        "baseColorTexture": {
          "index": 0
        },
        "metallicRoughnessTexture": {
          "index": 1
        }
      }
    }
  ],
  "meshes": [
    {
      "name": "Cilindro_Materiais_0",
      "primitives": [
        {
          "attributes": {
            "NORMAL": 1,
            "POSITION": 0,
            "TANGENT": 2,
            "TEXCOORD_0": 3
          },
          "indices": 4,
          "material": 0,
          "mode": 4
        }
      ]
    }
  ],
  "nodes": [
    {
      "children": [
        1
      ],
      "matrix": [
        7.4586738920843345,
        -9.40233058618016e-16,
        4.234433252433519,
        0.0,
        4.234433252433519,
        1.6561582976325117e-15,
        -7.4586738920843345,
        0.0,
        0.0,
        8.57684326171875,
        1.9044417735522567e-15,
        0.0,
        0.0,
        0.0,
        0.0,
        1.0
      ],
      "name": "Sketchfab_model"
    },
    {
      "children": [
        2
      ],
      "matrix": [
        0.009999999776482582,
        0.0,
        0.0,
        0.0,
        0.0,
        0.0,
        0.009999999776482582,
        0.0,
        0.0,
        -0.009999999776482582,
        0.0,
        0.0,
        0.0,
        0.0,
        0.0,
        1.0
      ],
      "name": "71d74d9975994636b40f66ab9e25a8cc.fbx"
    },
    {
      "children": [
        3
      ],
      "name": "RootNode"
    },
    {
      "children": [
        4
      ],
      "matrix": [
        0.22147981822490692,
        0.0,
        0.0,
        0.0,
        0.0,
        -3.608364245678116e-08,
        -0.221479818224904,
        0.0,
        0.0,
        0.221479818224904,
        -3.608364245678116e-08,
        0.0,
        0.8199669122695923,
        1.0214788913726807,
        0.6211003661155701,
        1.0
      ],
      "name": "Cilindro"
    },
    {
      "mesh": 0,
      "name": "Cilindro_Materiais_0"
    }
  ],
  "samplers": [
    {
      "magFilter": 9729,
      "minFilter": 9987,
      "wrapS": 10497,
      "wrapT": 10497
    }
  ],
  "scene": 0,
  "scenes": [
    {
      "name": "Sketchfab_Scene",
      "nodes": [
        0
      ]
    }
  ],
  "textures": [
    {
      "sampler": 0,
      "source": 0
    },
    {
      "sampler": 0,
      "source": 1
    },
    {
      "sampler": 0,
      "source": 2
    }
  ]
}
